<svg xmlns="http://www.w3.org/2000/svg" xmlns:xlink="http://www.w3.org/1999/xlink" viewBox="0 0 884.38 375.5"><defs><style>.cls-1,.cls-4{fill:none;}.cls-2{clip-path:url(#clip-path);}.cls-3{fill:#ef7423;}.cls-4{stroke:#ef7423;stroke-width:5px;}.cls-5{fill:#fff;}</style><clipPath id="clip-path"><rect class="cls-1" width="884.38" height="375.5"/></clipPath></defs><g id="Layer_2" data-name="Layer 2"><g id="Layer_1-2" data-name="Layer 1"><g class="cls-2"><path class="cls-3" d="M865.5,87.5V22.39H20.5V87.61c63.83,3.7,84.5,38.53,84.5,105.66s-20.67,105-84.5,108.66v54.46h845V302c-65.18-2.19-87.38-40.64-87.38-108.77S800.32,89.69,865.5,87.5"/><path class="cls-4" d="M881.88,104.5V2.5H2.5v99c75.87,4.4,84.61,34,85.61,86.4,1.2,62.6-9.74,97.2-85.61,101.6V373H881.88V286.5c-67.77,0-84.77-31.75-84.77-94C797.11,130.75,813.11,104.5,881.88,104.5Z"/><path class="cls-5" d="M602.8,184.49a35.08,35.08,0,0,0-16.18-.88q-12.07,2.13-18.56,10.63a22.85,22.85,0,0,0-4.73,18.54q2.76,15.58,25.14,22.31l7.8,2.32q10.1,3,11,8a6,6,0,0,1-1.75,5.13,10.81,10.81,0,0,1-6.42,3.22,19.7,19.7,0,0,1-9.39-1.12,30.76,30.76,0,0,1-10-5.5l-10.57,16.56q13.62,12.54,32.16,9.27,13.93-2.46,20.91-11.48a26.19,26.19,0,0,0-2.24-34.3q-5.7-5.5-19.09-9.41l-8.47-2.52q-5.5-1.59-7.05-2.81a4.74,4.74,0,0,1-1.84-2.93,4.66,4.66,0,0,1,1.36-4.14,9.29,9.29,0,0,1,5.34-2.5q6.55-1.16,16,5.37L617,192.72a34.89,34.89,0,0,0-14.19-8.23M537.4,196a35,35,0,0,0-16.18-.89q-12.08,2.13-18.57,10.63a22.85,22.85,0,0,0-4.72,18.54q2.74,15.58,25.14,22.32l7.8,2.32q10.1,3,11,7.94a6,6,0,0,1-1.75,5.13,10.76,10.76,0,0,1-6.42,3.22,19.68,19.68,0,0,1-9.39-1.11,30.87,30.87,0,0,1-10-5.51l-10.57,16.56q13.62,12.54,32.16,9.27Q549.79,282,556.75,273a26.18,26.18,0,0,0-2.23-34.31q-5.71-5.5-19.09-9.4L527,226.74q-5.51-1.59-7.05-2.81a4.74,4.74,0,0,1-1.84-2.93,4.65,4.65,0,0,1,1.36-4.13,9.23,9.23,0,0,1,5.34-2.51q6.54-1.16,16,5.37l10.84-15.48A34.83,34.83,0,0,0,537.4,196m-79.15,37.53q7.81,5.69,9.76,16.75,2,11.29-3.38,19.43a22.23,22.23,0,0,1-15.38,9.9,21.85,21.85,0,0,1-17.59-4.2q-7.89-5.93-9.83-16.91t3.37-19a21.84,21.84,0,0,1,15.15-9.86,22.52,22.52,0,0,1,17.9,3.92m3-16a39.63,39.63,0,0,0-13.9-6.46,36.18,36.18,0,0,0-14.82-.36q-16.57,2.92-25.95,17.51t-5.93,34.21q3.35,18.93,17.57,29.56t30.65,7.73a35.44,35.44,0,0,0,13.11-5,42.3,42.3,0,0,0,11-10.73l1.58,9,21.26-3.75L480.9,204.5l-21.27,3.75ZM360.83,250.85q7.79,5.82,9.7,16.73t-3.47,19.25a22,22,0,0,1-15.15,10,22.36,22.36,0,0,1-17.9-4q-7.86-5.81-9.84-17.1-1.95-11.06,3.46-19.08a22.58,22.58,0,0,1,15.46-9.8,22,22,0,0,1,17.74,4.06M296.55,237l22.71,130.71L340.38,364,331,309.08a42.09,42.09,0,0,0,14.05,6.32,35.82,35.82,0,0,0,14.09.21q16.44-2.89,26.19-17.75t6.41-33.78q-3.47-19.63-17.28-30.13t-30.41-7.57a36.49,36.49,0,0,0-13.83,5.41,40.68,40.68,0,0,0-10.94,10.85l-1.64-9.35Z"/><path class="cls-5" d="M692.51,133.32l-10.84,40.4,22-3.88L736.3,44.73l-21.8,3.84L699.59,106,668.2,56.73l-21.74,3.84ZM579.94,159.69,601.05,156l-6-34q-2.41-13.64-2.15-17.61a23.07,23.07,0,0,1,4.37-12.82,16,16,0,0,1,10.35-6.24,13.65,13.65,0,0,1,8.82,1.09,14.15,14.15,0,0,1,6.17,7q2.32,5,4.92,19.69l6.55,37.16L655,146.45l-9.87-56q-2.58-14.65-11.32-20.9a29.23,29.23,0,0,0-22.8-5,32.88,32.88,0,0,0-12.3,4.94,49,49,0,0,0-11.12,10.28L575.37,11l-21.11,3.72ZM534.6,83.22a50.77,50.77,0,0,0-23.55-1,52.14,52.14,0,0,0-23.61,10.27A44.32,44.32,0,0,0,471,135.53q3.13,17.76,18.13,28.77t37.35,7.07q24.85-4.38,35.36-24.52L543,138.33Q536.77,149.46,522.5,152q-11.54,2-19.85-3.55T492.44,132q-1.95-11.12,4.16-19.54t18-10.52a30.22,30.22,0,0,1,11.78,0,30.56,30.56,0,0,1,11.14,5.51l16-12.86a43.72,43.72,0,0,0-19-11.4m-143,109.68,21.26-3.75-6-34q-2.34-13.23-2.1-17.36a23.45,23.45,0,0,1,4.3-13.08,15.94,15.94,0,0,1,10.32-6.27,13.5,13.5,0,0,1,8.81,1.14,14,14,0,0,1,6.08,6.75q2.24,4.74,4.91,19.91l6.55,37.11,21-3.7-9.88-56q-2.58-14.65-11.29-20.82a29.48,29.48,0,0,0-22.94-5,32.14,32.14,0,0,0-11.6,4.5,52.11,52.11,0,0,0-11.61,10.79l-1.53-8.68-21.27,3.75Zm-99.76-33.41q3.58,20.32,7.44,27.6a33.48,33.48,0,0,0,15.18,15.24q9.7,4.71,23.65,2.25,12.85-2.27,20.25-9.07A33.69,33.69,0,0,0,368.25,178q2.06-8.8-1.85-31l-6.34-35.91-21.26,3.75,7.32,41.52q2.11,12,1.43,15.89a15.11,15.11,0,0,1-4.19,8.41,15.89,15.89,0,0,1-8.58,4.12,15.31,15.31,0,0,1-9.39-1,14.7,14.7,0,0,1-6.54-6.28q-2.46-4.35-4.56-16.26l-7.2-40.82-21.5,3.79ZM249.39,218l21.11-3.72-6-34.28-.81-4.11q-3.13-17.76-.81-24.44t7.22-7.54a14.92,14.92,0,0,1,6.49.79l3.39-19.48a20.16,20.16,0,0,0-9-.65,19.29,19.29,0,0,0-10.18,5.16,23.19,23.19,0,0,0-6.17,11L252.67,130l-18.22,3.22Zm-40.27-77.36a50.81,50.81,0,0,0-23.56-1A52,52,0,0,0,162,149.85a44.34,44.34,0,0,0-16.46,43.07q3.13,17.76,18.12,28.77T201,228.76q24.84-4.38,35.35-24.52l-18.79-8.52q-6.24,11.13-20.51,13.65-11.55,2-19.85-3.55T167,189.41q-2-11.11,4.15-19.54t18-10.52a30.22,30.22,0,0,1,11.78,0,30.59,30.59,0,0,1,11.15,5.51l16-12.86a43.72,43.72,0,0,0-19-11.4"/></g></g></g></svg>